<?xml version="1.0" encoding="UTF-8"?><svg id="canvas_4" width="560" height="376" style="width: 560px; height: 376px;" version="1.1" xmlns="http://www.w3.org/2000/svg" viewBox="0 0 560 376"><path stroke="none" opacity="1" fill-opacity="1" d="M 0,0 l 560,0 l 0,376 l-560 0 z" stroke-opacity="1" transform="matrix(1,0,0,1,0,0)" width="560" height="376" stroke-width="1" fill="#fff"></path><defs id="defs_1"></defs><g stroke="none" fill="none" opacity="1" fill-opacity="1" stroke-opacity="1" transform="matrix(1,0,0,1,0,0)"><g stroke="none" fill="none" opacity="1" fill-opacity="1" stroke-opacity="1" transform="matrix(1,0,0,1,0,0)"></g><g stroke="none" fill="none" opacity="1" fill-opacity="1" stroke-opacity="1" transform="matrix(1,0,0,1,0,0)"></g><g stroke="none" fill="none" opacity="1" fill-opacity="1" stroke-opacity="1" transform="matrix(1,0,0,1,0,0)"><text paint-order="stroke" style="stroke-linecap:butt; stroke-linejoin:miter;" alignment-baseline="auto" text-anchor="left" opacity="1" fill-opacity="1" stroke-opacity="1" transform="matrix(1,0,0,1,0,0)" x="24" y="42" stroke-width="1" font-size="18" font-family="PingFang SC" font-style="normal" font-weight="normal" font-variant="normal" fill="black" font="normal normal normal 18px PingFang SC">折线图</text></g><g stroke="none" fill="none" opacity="1" fill-opacity="1" stroke-opacity="1" transform="matrix(1,0,0,1,0,0)"><text paint-order="stroke" style="stroke-linecap:butt; stroke-linejoin:miter;" alignment-baseline="auto" text-anchor="left" opacity="1" fill-opacity="1" stroke-opacity="1" transform="matrix(1,0,0,1,0,0)" x="24" y="64.5" stroke-width="1" font-size="12" font-family="PingFang SC" font-style="normal" font-weight="normal" font-variant="normal" fill="grey" font="normal normal normal 12px PingFang SC">一个简单的折线图</text></g><g stroke="none" fill="none" opacity="1" fill-opacity="1" stroke-opacity="1" transform="matrix(1,0,0,1,0,0)"><path stroke="none" d="M 0,77 l 560,0 l 0,299 l-560 0 z" opacity="1" fill-opacity="0" stroke-opacity="1" transform="matrix(1,0,0,1,0,0)" width="560" height="299" stroke-width="1" fill="#ffffff"></path><g stroke="none" fill="none" opacity="1" fill-opacity="1" stroke-opacity="1" transform="matrix(1,0,0,1,0,0)"></g><g stroke="none" fill="none" opacity="1" fill-opacity="1" stroke-opacity="1" transform="matrix(1,0,0,1,0,0)"><g stroke="none" fill="none" opacity="1" fill-opacity="1" stroke-opacity="1" transform="matrix(1,0,0,1,0,0)"><path fill="none" opacity="1" fill-opacity="1" stroke-opacity="0.45" transform="matrix(1,0,0,1,0,0)" d="M 58.375 304.5L 535.5 304.5" stroke-width="1" stroke="#000"></path><path fill="none" opacity="1" fill-opacity="1" stroke-opacity="0.45" transform="matrix(1,0,0,1,0,0)" d="M 106.0875 304.5L 106.0875 308.5M 201.51250000000002 304.5L 201.51250000000002 308.5M 296.9375 304.5L 296.9375 308.5M 392.3625 304.5L 392.3625 308.5M 487.7875 304.5L 487.7875 308.5" stroke-width="0.5" stroke="#000"></path><g stroke="none" fill="none" opacity="1" fill-opacity="1" stroke-opacity="1" transform="matrix(1,0,0,1,0,0)"><text paint-order="stroke" style="stroke-linecap:butt; stroke-linejoin:miter;" alignment-baseline="auto" text-anchor="middle" opacity="1" fill-opacity="0.45" stroke-opacity="1" transform="matrix(1,0,0,1,0,0)" x="106.0875" y="325.5" stroke-width="1" font-size="12" font-family="&quot;-apple-system&quot;, BlinkMacSystemFont, &quot;Segoe UI&quot;, Roboto,&quot;Helvetica Neue&quot;, Helvetica, &quot;PingFang SC&quot;, &quot;Hiragino Sans GB&quot;, &quot;Microsoft YaHei&quot;,SimSun, &quot;sans-serif&quot;" font-style="normal" font-weight="normal" font-variant="normal" fill="#000" font="normal normal normal 12px &quot;-apple-system&quot;, BlinkMacSystemFont, &quot;Segoe UI&quot;, Roboto,&quot;Helvetica Neue&quot;, Helvetica, &quot;PingFang SC&quot;, &quot;Hiragino Sans GB&quot;, &quot;Microsoft YaHei&quot;,SimSun, &quot;sans-serif&quot;">2019-03</text><text paint-order="stroke" style="stroke-linecap:butt; stroke-linejoin:miter;" alignment-baseline="auto" text-anchor="middle" opacity="1" fill-opacity="0.45" stroke-opacity="1" transform="matrix(1,0,0,1,0,0)" x="201.51250000000002" y="325.5" stroke-width="1" font-size="12" font-family="&quot;-apple-system&quot;, BlinkMacSystemFont, &quot;Segoe UI&quot;, Roboto,&quot;Helvetica Neue&quot;, Helvetica, &quot;PingFang SC&quot;, &quot;Hiragino Sans GB&quot;, &quot;Microsoft YaHei&quot;,SimSun, &quot;sans-serif&quot;" font-style="normal" font-weight="normal" font-variant="normal" fill="#000" font="normal normal normal 12px &quot;-apple-system&quot;, BlinkMacSystemFont, &quot;Segoe UI&quot;, Roboto,&quot;Helvetica Neue&quot;, Helvetica, &quot;PingFang SC&quot;, &quot;Hiragino Sans GB&quot;, &quot;Microsoft YaHei&quot;,SimSun, &quot;sans-serif&quot;">2019-04</text><text paint-order="stroke" style="stroke-linecap:butt; stroke-linejoin:miter;" alignment-baseline="auto" text-anchor="middle" opacity="1" fill-opacity="0.45" stroke-opacity="1" transform="matrix(1,0,0,1,0,0)" x="296.9375" y="325.5" stroke-width="1" font-size="12" font-family="&quot;-apple-system&quot;, BlinkMacSystemFont, &quot;Segoe UI&quot;, Roboto,&quot;Helvetica Neue&quot;, Helvetica, &quot;PingFang SC&quot;, &quot;Hiragino Sans GB&quot;, &quot;Microsoft YaHei&quot;,SimSun, &quot;sans-serif&quot;" font-style="normal" font-weight="normal" font-variant="normal" fill="#000" font="normal normal normal 12px &quot;-apple-system&quot;, BlinkMacSystemFont, &quot;Segoe UI&quot;, Roboto,&quot;Helvetica Neue&quot;, Helvetica, &quot;PingFang SC&quot;, &quot;Hiragino Sans GB&quot;, &quot;Microsoft YaHei&quot;,SimSun, &quot;sans-serif&quot;">2019-05</text><text paint-order="stroke" style="stroke-linecap:butt; stroke-linejoin:miter;" alignment-baseline="auto" text-anchor="middle" opacity="1" fill-opacity="0.45" stroke-opacity="1" transform="matrix(1,0,0,1,0,0)" x="392.3625" y="325.5" stroke-width="1" font-size="12" font-family="&quot;-apple-system&quot;, BlinkMacSystemFont, &quot;Segoe UI&quot;, Roboto,&quot;Helvetica Neue&quot;, Helvetica, &quot;PingFang SC&quot;, &quot;Hiragino Sans GB&quot;, &quot;Microsoft YaHei&quot;,SimSun, &quot;sans-serif&quot;" font-style="normal" font-weight="normal" font-variant="normal" fill="#000" font="normal normal normal 12px &quot;-apple-system&quot;, BlinkMacSystemFont, &quot;Segoe UI&quot;, Roboto,&quot;Helvetica Neue&quot;, Helvetica, &quot;PingFang SC&quot;, &quot;Hiragino Sans GB&quot;, &quot;Microsoft YaHei&quot;,SimSun, &quot;sans-serif&quot;">2019-06</text><text paint-order="stroke" style="stroke-linecap:butt; stroke-linejoin:miter;" alignment-baseline="auto" text-anchor="middle" opacity="1" fill-opacity="0.45" stroke-opacity="1" transform="matrix(1,0,0,1,0,0)" x="487.7875" y="325.5" stroke-width="1" font-size="12" font-family="&quot;-apple-system&quot;, BlinkMacSystemFont, &quot;Segoe UI&quot;, Roboto,&quot;Helvetica Neue&quot;, Helvetica, &quot;PingFang SC&quot;, &quot;Hiragino Sans GB&quot;, &quot;Microsoft YaHei&quot;,SimSun, &quot;sans-serif&quot;" font-style="normal" font-weight="normal" font-variant="normal" fill="#000" font="normal normal normal 12px &quot;-apple-system&quot;, BlinkMacSystemFont, &quot;Segoe UI&quot;, Roboto,&quot;Helvetica Neue&quot;, Helvetica, &quot;PingFang SC&quot;, &quot;Hiragino Sans GB&quot;, &quot;Microsoft YaHei&quot;,SimSun, &quot;sans-serif&quot;">2019-07</text><g stroke="none" fill="none" opacity="1" fill-opacity="1" stroke-opacity="1" transform="matrix(1,0,0,1,0,0)"></g></g><text paint-order="stroke" style="stroke-linecap:butt; stroke-linejoin:miter;" alignment-baseline="auto" text-anchor="middle" opacity="1" fill-opacity="0.65" stroke-opacity="1" transform="matrix(1,0,0,1,0,0)" x="296.9375" y="350.5" stroke-width="1" font-size="12" font-family="&quot;-apple-system&quot;, BlinkMacSystemFont, &quot;Segoe UI&quot;, Roboto,&quot;Helvetica Neue&quot;, Helvetica, &quot;PingFang SC&quot;, &quot;Hiragino Sans GB&quot;, &quot;Microsoft YaHei&quot;,SimSun, &quot;sans-serif&quot;" font-style="normal" font-weight="normal" font-variant="normal" fill="#000">折线图</text></g><g stroke="none" fill="none" opacity="1" fill-opacity="1" stroke-opacity="1" transform="matrix(1,0,0,1,0,0)"><g stroke="none" fill="none" opacity="1" fill-opacity="1" stroke-opacity="1" transform="matrix(1,0,0,1,0,0)"><path fill="none" opacity="1" fill-opacity="1" stroke-opacity="0.15" transform="matrix(1,0,0,1,0,0)" d="M 58.375 304.5L 106.0875 304.5L 201.51250000000002 304.5L 296.9375 304.5L 392.3625 304.5L 487.7875 304.5L 535.5 304.5" stroke-width="1" stroke="#000" stroke-dasharray="0,0"></path><path fill="none" opacity="1" fill-opacity="1" stroke-opacity="0.15" transform="matrix(1,0,0,1,0,0)" d="M 58.375 258.375L 106.0875 258.375L 201.51250000000002 258.375L 296.9375 258.375L 392.3625 258.375L 487.7875 258.375L 535.5 258.375" stroke-width="1" stroke="#000" stroke-dasharray="0,0"></path><path fill="none" opacity="1" fill-opacity="1" stroke-opacity="0.15" transform="matrix(1,0,0,1,0,0)" d="M 58.375 212.25L 106.0875 212.25L 201.51250000000002 212.25L 296.9375 212.25L 392.3625 212.25L 487.7875 212.25L 535.5 212.25" stroke-width="1" stroke="#000" stroke-dasharray="0,0"></path><path fill="none" opacity="1" fill-opacity="1" stroke-opacity="0.15" transform="matrix(1,0,0,1,0,0)" d="M 58.375 166.125L 106.0875 166.125L 201.51250000000002 166.125L 296.9375 166.125L 392.3625 166.125L 487.7875 166.125L 535.5 166.125" stroke-width="1" stroke="#000" stroke-dasharray="0,0"></path><path fill="none" opacity="1" fill-opacity="1" stroke-opacity="0.15" transform="matrix(1,0,0,1,0,0)" d="M 58.375 120L 106.0875 120L 201.51250000000002 120L 296.9375 120L 392.3625 120L 487.7875 120L 535.5 120" stroke-width="1" stroke="#000" stroke-dasharray="0,0"></path></g><g stroke="none" fill="none" opacity="1" fill-opacity="1" stroke-opacity="1" transform="matrix(1,0,0,1,0,0)"><text paint-order="stroke" style="stroke-linecap:butt; stroke-linejoin:miter;" alignment-baseline="auto" text-anchor="end" opacity="1" fill-opacity="0.45" stroke-opacity="1" transform="matrix(1,0,0,1,0,0)" x="50.375" y="309.5" stroke-width="1" font-size="12" font-family="&quot;-apple-system&quot;, BlinkMacSystemFont, &quot;Segoe UI&quot;, Roboto,&quot;Helvetica Neue&quot;, Helvetica, &quot;PingFang SC&quot;, &quot;Hiragino Sans GB&quot;, &quot;Microsoft YaHei&quot;,SimSun, &quot;sans-serif&quot;" font-style="normal" font-weight="normal" font-variant="normal" fill="#000">0</text><text paint-order="stroke" style="stroke-linecap:butt; stroke-linejoin:miter;" alignment-baseline="auto" text-anchor="end" opacity="1" fill-opacity="0.45" stroke-opacity="1" transform="matrix(1,0,0,1,0,0)" x="50.375" y="263.375" stroke-width="1" font-size="12" font-family="&quot;-apple-system&quot;, BlinkMacSystemFont, &quot;Segoe UI&quot;, Roboto,&quot;Helvetica Neue&quot;, Helvetica, &quot;PingFang SC&quot;, &quot;Hiragino Sans GB&quot;, &quot;Microsoft YaHei&quot;,SimSun, &quot;sans-serif&quot;" font-style="normal" font-weight="normal" font-variant="normal" fill="#000">250</text><text paint-order="stroke" style="stroke-linecap:butt; stroke-linejoin:miter;" alignment-baseline="auto" text-anchor="end" opacity="1" fill-opacity="0.45" stroke-opacity="1" transform="matrix(1,0,0,1,0,0)" x="50.375" y="217.25" stroke-width="1" font-size="12" font-family="&quot;-apple-system&quot;, BlinkMacSystemFont, &quot;Segoe UI&quot;, Roboto,&quot;Helvetica Neue&quot;, Helvetica, &quot;PingFang SC&quot;, &quot;Hiragino Sans GB&quot;, &quot;Microsoft YaHei&quot;,SimSun, &quot;sans-serif&quot;" font-style="normal" font-weight="normal" font-variant="normal" fill="#000">500</text><text paint-order="stroke" style="stroke-linecap:butt; stroke-linejoin:miter;" alignment-baseline="auto" text-anchor="end" opacity="1" fill-opacity="0.45" stroke-opacity="1" transform="matrix(1,0,0,1,0,0)" x="50.375" y="171.125" stroke-width="1" font-size="12" font-family="&quot;-apple-system&quot;, BlinkMacSystemFont, &quot;Segoe UI&quot;, Roboto,&quot;Helvetica Neue&quot;, Helvetica, &quot;PingFang SC&quot;, &quot;Hiragino Sans GB&quot;, &quot;Microsoft YaHei&quot;,SimSun, &quot;sans-serif&quot;" font-style="normal" font-weight="normal" font-variant="normal" fill="#000">750</text><text paint-order="stroke" style="stroke-linecap:butt; stroke-linejoin:miter;" alignment-baseline="auto" text-anchor="end" opacity="1" fill-opacity="0.45" stroke-opacity="1" transform="matrix(1,0,0,1,0,0)" x="50.375" y="125" stroke-width="1" font-size="12" font-family="&quot;-apple-system&quot;, BlinkMacSystemFont, &quot;Segoe UI&quot;, Roboto,&quot;Helvetica Neue&quot;, Helvetica, &quot;PingFang SC&quot;, &quot;Hiragino Sans GB&quot;, &quot;Microsoft YaHei&quot;,SimSun, &quot;sans-serif&quot;" font-style="normal" font-weight="normal" font-variant="normal" fill="#000">1000</text><g stroke="none" fill="none" opacity="1" fill-opacity="1" stroke-opacity="1" transform="matrix(1,0,0,1,0,0)"></g></g></g></g></g><g stroke="none" fill="none" opacity="1" fill-opacity="1" stroke-opacity="1" transform="matrix(1,0,0,1,0,0)"><path stroke="none" d="M 58.375,120 l 477.125,0 l 0,184.5 l-477.125 0 z" opacity="1" fill-opacity="0" stroke-opacity="1" transform="matrix(1,0,0,1,0,0)" width="477.125" height="184.5" stroke-width="1" fill="#ffffff"></path><g stroke="none" fill="none" opacity="1" fill-opacity="1" stroke-opacity="1" transform="matrix(1,0,0,1,0,0)"><g stroke="none" fill="none" opacity="1" fill-opacity="1" stroke-opacity="1" transform="matrix(1,0,0,1,0,0)"><path fill="none" opacity="1" fill-opacity="1" stroke-opacity="1" transform="matrix(1,0,0,1,0,0)" d="M 106.0875 233.4675L 201.51250000000002 140.664L 296.9375 240.10950000000003L 392.3625 218.154L 487.7875 216.49349999999998" stroke-width="2" stroke="#5B8FF9" stroke-linejoin="round" stroke-linecap="round"></path><path fill="none" opacity="1" fill-opacity="1" stroke-opacity="1" transform="matrix(1,0,0,1,0,0)" d="M 106.0875 250.8105L 201.51250000000002 215.202L 296.9375 250.44150000000002L 392.3625 277.37850000000003L 487.7875 190.47899999999998" stroke-width="2" stroke="#5AD8A6" stroke-linejoin="round" stroke-linecap="round"></path></g></g></g><g stroke="none" fill="none" opacity="1" fill-opacity="1" stroke-opacity="1" transform="matrix(1,0,0,1,0,0)"><g stroke="none" fill="none" opacity="1" fill-opacity="1" stroke-opacity="1" transform="matrix(1,0,0,1,0,0)"></g><g stroke="none" fill="none" opacity="1" fill-opacity="1" stroke-opacity="1" transform="matrix(1,0,0,1,0,0)"></g><g stroke="none" fill="none" opacity="1" fill-opacity="1" stroke-opacity="1" transform="matrix(1,0,0,1,24,77)"><g stroke="none" fill="none" opacity="1" fill-opacity="1" stroke-opacity="1" transform="matrix(1,0,0,1,0,0)"><g stroke="none" fill="none" opacity="1" fill-opacity="1" stroke-opacity="1" transform="matrix(1,0,0,1,0,0)"><path fill="none" d="M 0 15L 12 15" opacity="1" fill-opacity="1" stroke-opacity="1" transform="matrix(1,0,0,1,0,0)" stroke-width="2" stroke="#5B8FF9"></path><text paint-order="stroke" style="stroke-linecap:butt; stroke-linejoin:miter;" alignment-baseline="auto" text-anchor="left" opacity="1" fill-opacity="1" stroke-opacity="1" transform="matrix(1,0,0,1,0,0)" x="22" y="20" stroke-width="1" font-size="12" font-family="&quot;-apple-system&quot;, BlinkMacSystemFont, &quot;Segoe UI&quot;, Roboto,&quot;Helvetica Neue&quot;, Helvetica, &quot;PingFang SC&quot;, &quot;Hiragino Sans GB&quot;, &quot;Microsoft YaHei&quot;,SimSun, &quot;sans-serif&quot;" font-style="normal" font-weight="normal" font-variant="normal" fill="#8C8C8C" font="normal normal normal 12px &quot;-apple-system&quot;, BlinkMacSystemFont, &quot;Segoe UI&quot;, Roboto,&quot;Helvetica Neue&quot;, Helvetica, &quot;PingFang SC&quot;, &quot;Hiragino Sans GB&quot;, &quot;Microsoft YaHei&quot;,SimSun, &quot;sans-serif&quot;">Paris</text><path stroke="none" d="M 0,8 l 48.0859375,0 l 0,14 l-48.0859375 0 z" opacity="1" fill-opacity="0" stroke-opacity="1" transform="matrix(1,0,0,1,0,0)" width="48.0859375" height="14" stroke-width="1" fill="#fff"></path></g><g stroke="none" fill="none" opacity="1" fill-opacity="1" stroke-opacity="1" transform="matrix(1,0,0,1,0,0)"><path fill="none" d="M 59.5859375 15L 71.5859375 15" opacity="1" fill-opacity="1" stroke-opacity="1" transform="matrix(1,0,0,1,0,0)" stroke-width="2" stroke="#5AD8A6"></path><text paint-order="stroke" style="stroke-linecap:butt; stroke-linejoin:miter;" alignment-baseline="auto" text-anchor="left" opacity="1" fill-opacity="1" stroke-opacity="1" transform="matrix(1,0,0,1,0,0)" x="81.5859375" y="20" stroke-width="1" font-size="12" font-family="&quot;-apple-system&quot;, BlinkMacSystemFont, &quot;Segoe UI&quot;, Roboto,&quot;Helvetica Neue&quot;, Helvetica, &quot;PingFang SC&quot;, &quot;Hiragino Sans GB&quot;, &quot;Microsoft YaHei&quot;,SimSun, &quot;sans-serif&quot;" font-style="normal" font-weight="normal" font-variant="normal" fill="#8C8C8C" font="normal normal normal 12px &quot;-apple-system&quot;, BlinkMacSystemFont, &quot;Segoe UI&quot;, Roboto,&quot;Helvetica Neue&quot;, Helvetica, &quot;PingFang SC&quot;, &quot;Hiragino Sans GB&quot;, &quot;Microsoft YaHei&quot;,SimSun, &quot;sans-serif&quot;">London</text><path stroke="none" d="M 59.5859375,8 l 63.859375,0 l 0,14 l-63.859375 0 z" opacity="1" fill-opacity="0" stroke-opacity="1" transform="matrix(1,0,0,1,0,0)" width="63.859375" height="14" stroke-width="1" fill="#fff"></path></g></g></g><g stroke="none" fill="none" opacity="1" fill-opacity="1" stroke-opacity="1" transform="matrix(1,0,0,1,0,0)" visibility="hidden"><line fill="none" opacity="1" fill-opacity="1" stroke-opacity="0.25" transform="matrix(1,0,0,1,0,0)" x1="0" y1="304.5" x2="0" y2="120" stroke-width="1" stroke="#000"></line></g></g></g></svg>